<svg xmlns="http://www.w3.org/2000/svg" width="101.324" height="62.941" viewBox="0 0 101.324 62.941"><defs><linearGradient id="a" x1="3.375" y1="8.277" x2="3.375" y2="9.277" gradientUnits="objectBoundingBox"><stop offset="0" stop-color="gray" stop-opacity="0.251"/><stop offset="0.54" stop-color="gray" stop-opacity="0.122"/><stop offset="1" stop-color="gray" stop-opacity="0.102"/></linearGradient></defs><g transform="translate(-359.546 -227.79)"><path d="M399.474,275.549a18.088,18.088,0,0,0-20.9-17.858v-29.9h88.707v55.4H397.785A18,18,0,0,0,399.474,275.549Z" transform="translate(-6.407 0)" fill="#f2f2f2"/><circle cx="15.478" cy="15.478" r="15.478" transform="translate(359.546 259.776)" fill="#012c5d"/><g transform="translate(366.672 266.902)" opacity="0.5"><path d="M370.506,295.443h6.487v6.487h3.729v-6.487h6.487v-3.731h-6.487v-6.485h-3.729v6.485h-6.487Z" transform="translate(-370.506 -285.227)" fill="url(#a)"/></g><rect width="3.171" height="14.198" transform="translate(373.438 268.154)" fill="#fff"/><rect width="14.198" height="3.171" transform="translate(367.924 273.668)" fill="#fff"/><path d="M457.064,245.817v30.845h27.9V245.817Zm13.949,5.093a6.226,6.226,0,0,1,6.226,6.226h0a6.226,6.226,0,1,1-6.226-6.226Zm-9.1,20.659a9.613,9.613,0,0,1,18.2,0C480.162,271.538,461.863,271.538,461.915,271.569Z" transform="translate(-31.45 -5.751)" fill="#bd2e26" opacity="0.501"/><rect width="20.396" height="1.791" transform="translate(383.375 240.066)" fill="#bd2e26" opacity="0.5" style="isolation:isolate"/><rect width="20.396" height="1.791" transform="translate(383.375 251.819)" fill="#d3d3d3"/><rect width="32.145" height="1.791" transform="translate(383.375 245.943)" fill="#d3d3d3"/></g></svg>
